<mxfile host="app.diagrams.net" modified="2023-08-09T13:55:22.323Z" agent="Mozilla/5.0 (Macintosh; Intel Mac OS X 10_15_7) AppleWebKit/605.1.15 (KHTML, like Gecko) Version/16.5.2 Safari/605.1.15" etag="XaH9KwHnU7QVuXEpOQXR" version="21.6.7" type="device">
  <diagram name="Page-1" id="nVMjXC_ABuS3nINuBnRu">
    <mxGraphModel dx="813" dy="538" grid="1" gridSize="10" guides="1" tooltips="1" connect="1" arrows="1" fold="1" page="1" pageScale="1" pageWidth="827" pageHeight="1169" math="0" shadow="0">
      <root>
        <mxCell id="0" />
        <mxCell id="1" parent="0" />
        <mxCell id="mYxqG1SxaeNXHI3gQlFm-1" value="" style="rounded=1;arcSize=3;dashed=0;fillColor=none;gradientColor=none;strokeWidth=2;" parent="1" vertex="1">
          <mxGeometry x="60" y="290" width="740" height="350" as="geometry" />
        </mxCell>
        <mxCell id="mYxqG1SxaeNXHI3gQlFm-21" value="" style="rounded=1;arcSize=3;dashed=0;fillColor=none;gradientColor=none;strokeWidth=4;strokeColor=#6600CC;" parent="1" vertex="1">
          <mxGeometry x="400" y="320" width="380" height="305" as="geometry" />
        </mxCell>
        <mxCell id="mYxqG1SxaeNXHI3gQlFm-24" value="" style="rounded=1;arcSize=3;dashed=1;fillColor=none;gradientColor=none;dashPattern=8 3 1 3;strokeWidth=2;" parent="1" vertex="1">
          <mxGeometry x="410" y="335" width="360" height="275" as="geometry" />
        </mxCell>
        <mxCell id="mYxqG1SxaeNXHI3gQlFm-2" value="" style="dashed=0;html=1;shape=mxgraph.aws3.cloud;fillColor=#F58536;gradientColor=none;dashed=0;" parent="1" vertex="1">
          <mxGeometry x="79" y="275" width="52" height="36" as="geometry" />
        </mxCell>
        <mxCell id="mYxqG1SxaeNXHI3gQlFm-3" value="" style="rounded=1;arcSize=3;dashed=0;fillColor=none;gradientColor=none;strokeWidth=4;strokeColor=#00331A;" parent="1" vertex="1">
          <mxGeometry x="80" y="320" width="300" height="305" as="geometry" />
        </mxCell>
        <mxCell id="mYxqG1SxaeNXHI3gQlFm-5" value="" style="rounded=1;arcSize=2;dashed=0;fillColor=none;gradientColor=none;strokeWidth=4;strokeColor=#FF0000;" parent="1" vertex="1">
          <mxGeometry x="100" y="335" width="260" height="110" as="geometry" />
        </mxCell>
        <mxCell id="mYxqG1SxaeNXHI3gQlFm-7" value="" style="shape=image;verticalLabelPosition=bottom;labelBackgroundColor=default;verticalAlign=top;aspect=fixed;imageAspect=0;image=https://res.cloudinary.com/hy4kyit2a/f_auto,fl_lossy,q_70/learn/modules/aws-cloud-security/control-access-with-aws-identity-and-access-management/images/3d5ecfeab35e8dfc1eb781f7880fafc9_99-c-15-ccc-fe-5-e-4-d-8-f-bcfc-193197-b-9-dc-7-b.png;" parent="1" vertex="1">
          <mxGeometry x="124" y="365" width="50" height="50" as="geometry" />
        </mxCell>
        <mxCell id="mYxqG1SxaeNXHI3gQlFm-8" value="" style="sketch=0;outlineConnect=0;fontColor=#232F3E;gradientColor=none;fillColor=#BF0816;strokeColor=none;dashed=0;verticalLabelPosition=bottom;verticalAlign=top;align=center;html=1;fontSize=12;fontStyle=0;aspect=fixed;pointerEvents=1;shape=mxgraph.aws4.permissions;" parent="1" vertex="1">
          <mxGeometry x="206" y="365" width="39.74" height="50" as="geometry" />
        </mxCell>
        <mxCell id="mYxqG1SxaeNXHI3gQlFm-9" value="" style="sketch=0;outlineConnect=0;fontColor=#232F3E;gradientColor=none;fillColor=#BF0816;strokeColor=none;dashed=0;verticalLabelPosition=bottom;verticalAlign=top;align=center;html=1;fontSize=12;fontStyle=0;aspect=fixed;pointerEvents=1;shape=mxgraph.aws4.role;" parent="1" vertex="1">
          <mxGeometry x="270" y="372" width="70.91" height="40" as="geometry" />
        </mxCell>
        <mxCell id="mYxqG1SxaeNXHI3gQlFm-10" value="IAM" style="text;html=1;strokeColor=none;fillColor=none;align=center;verticalAlign=middle;whiteSpace=wrap;rounded=0;fontFamily=Comic Sans MS;" parent="1" vertex="1">
          <mxGeometry x="130" y="412" width="40" height="20" as="geometry" />
        </mxCell>
        <mxCell id="mYxqG1SxaeNXHI3gQlFm-11" value="IAM Policy" style="text;html=1;strokeColor=none;fillColor=none;align=center;verticalAlign=middle;whiteSpace=wrap;rounded=0;fontFamily=Comic Sans MS;fontSize=10;" parent="1" vertex="1">
          <mxGeometry x="199.74" y="412" width="54.26" height="20" as="geometry" />
        </mxCell>
        <mxCell id="P2TW07sIhYhjggmWHY2y-2" style="edgeStyle=orthogonalEdgeStyle;rounded=0;orthogonalLoop=1;jettySize=auto;html=1;entryX=0.111;entryY=0.579;entryDx=0;entryDy=0;entryPerimeter=0;strokeWidth=2;endArrow=blockThin;endFill=1;startArrow=blockThin;startFill=1;strokeColor=#000066;exitX=0.5;exitY=0;exitDx=0;exitDy=0;" edge="1" parent="1">
          <mxGeometry relative="1" as="geometry">
            <mxPoint x="306.78" y="407" as="sourcePoint" />
            <mxPoint x="432.9950000000001" y="438.00199999999995" as="targetPoint" />
            <Array as="points">
              <mxPoint x="307" y="438" />
            </Array>
          </mxGeometry>
        </mxCell>
        <mxCell id="mYxqG1SxaeNXHI3gQlFm-14" value="Annotated IAM Roles" style="text;html=1;strokeColor=none;fillColor=none;align=center;verticalAlign=middle;whiteSpace=wrap;rounded=0;fontFamily=Comic Sans MS;" parent="1" vertex="1">
          <mxGeometry x="235.74" y="444" width="124.26" height="20" as="geometry" />
        </mxCell>
        <mxCell id="mYxqG1SxaeNXHI3gQlFm-15" value="" style="rounded=1;arcSize=3;dashed=0;fillColor=none;gradientColor=none;strokeWidth=4;strokeColor=#00994D;" parent="1" vertex="1">
          <mxGeometry x="155.45" y="510" width="364.55" height="90" as="geometry" />
        </mxCell>
        <mxCell id="mYxqG1SxaeNXHI3gQlFm-16" value="" style="sketch=0;points=[[0,0,0],[0.25,0,0],[0.5,0,0],[0.75,0,0],[1,0,0],[0,1,0],[0.25,1,0],[0.5,1,0],[0.75,1,0],[1,1,0],[0,0.25,0],[0,0.5,0],[0,0.75,0],[1,0.25,0],[1,0.5,0],[1,0.75,0]];outlineConnect=0;fontColor=#232F3E;gradientColor=#945DF2;gradientDirection=north;fillColor=#5A30B5;strokeColor=#ffffff;dashed=0;verticalLabelPosition=bottom;verticalAlign=top;align=center;html=1;fontSize=12;fontStyle=0;aspect=fixed;shape=mxgraph.aws4.resourceIcon;resIcon=mxgraph.aws4.elastic_load_balancing;" parent="1" vertex="1">
          <mxGeometry x="175.74" y="520" width="60" height="60" as="geometry" />
        </mxCell>
        <mxCell id="mYxqG1SxaeNXHI3gQlFm-17" value="AWS ELB" style="text;html=1;strokeColor=none;fillColor=none;align=center;verticalAlign=middle;whiteSpace=wrap;rounded=0;fontFamily=Comic Sans MS;fontSize=10;" parent="1" vertex="1">
          <mxGeometry x="175.74" y="576" width="59.26" height="20" as="geometry" />
        </mxCell>
        <mxCell id="mYxqG1SxaeNXHI3gQlFm-18" value="" style="sketch=0;outlineConnect=0;fontColor=#232F3E;gradientColor=none;fillColor=#4D27AA;strokeColor=none;dashed=0;verticalLabelPosition=bottom;verticalAlign=top;align=center;html=1;fontSize=12;fontStyle=0;aspect=fixed;pointerEvents=1;shape=mxgraph.aws4.application_load_balancer;" parent="1" vertex="1">
          <mxGeometry x="263" y="520" width="61" height="61" as="geometry" />
        </mxCell>
        <mxCell id="mYxqG1SxaeNXHI3gQlFm-19" value="AWS ALB" style="text;html=1;strokeColor=none;fillColor=none;align=center;verticalAlign=middle;whiteSpace=wrap;rounded=0;fontFamily=Comic Sans MS;fontSize=10;" parent="1" vertex="1">
          <mxGeometry x="265.74" y="576" width="59.26" height="20" as="geometry" />
        </mxCell>
        <mxCell id="mYxqG1SxaeNXHI3gQlFm-20" value="Other AWS Services" style="text;html=1;strokeColor=none;fillColor=none;align=center;verticalAlign=middle;whiteSpace=wrap;rounded=0;fontFamily=Comic Sans MS;" parent="1" vertex="1">
          <mxGeometry x="219.65" y="603" width="124.26" height="20" as="geometry" />
        </mxCell>
        <mxCell id="mYxqG1SxaeNXHI3gQlFm-22" value="" style="editableCssRules=.*;html=1;shape=image;verticalLabelPosition=bottom;labelBackgroundColor=#ffffff;verticalAlign=top;aspect=fixed;imageAspect=0;image=data:image/svg+xml,PHN2ZyB4bWxucz0iaHR0cDovL3d3dy53My5vcmcvMjAwMC9zdmciIHhtbG5zOnY9Imh0dHBzOi8vdmVjdGEuaW8vbmFubyIgd2lkdGg9IjIwIiBoZWlnaHQ9IjE5LjI5OTk5OTIzNzA2MDU0NyIgdmlld0JveD0iMCAwIDIwIDE5LjI5OTk5OTIzNzA2MDU0NyI+JiN4YTsJPHN0eWxlIHR5cGU9InRleHQvY3NzIj4mI3hhOwkuc3Qwe2ZpbGw6IzQyODVmNDt9JiN4YTsJLnN0MXtmaWxsOiM2NjlkZjY7fSYjeGE7CTwvc3R5bGU+JiN4YTsJPHBhdGggY2xhc3M9InN0MCIgZD0iTTIuNDMgNi4xSDBWMi42N2gzLjk0bDguNCAxMC40OWgyLjM0di0yLjcyTDIwIDE0Ljg3bC01LjMyIDQuNDN2LTIuNzFoLTMuODd6Ii8+JiN4YTsJPHBhdGggY2xhc3M9InN0MSIgZD0iTTE0LjY4IDYuMTR2Mi43MkwyMCA0LjQzIDE0LjY4IDB2Mi43MWgtMy44N0w4LjMzIDUuODJsMi4xMyAyLjY3IDEuODgtMi4zNXpNMCAxMy4ydjMuNDNoMy45NGwyLjUyLTMuMTUtMi4xMy0yLjY3LTEuOSAyLjM5eiIvPiYjeGE7PC9zdmc+;" parent="1" vertex="1">
          <mxGeometry x="437.18" y="529" width="40" height="38" as="geometry" />
        </mxCell>
        <mxCell id="mYxqG1SxaeNXHI3gQlFm-23" value="ingress::resource" style="text;html=1;strokeColor=none;fillColor=none;align=center;verticalAlign=middle;whiteSpace=wrap;rounded=0;fontFamily=Comic Sans MS;fontSize=10;" parent="1" vertex="1">
          <mxGeometry x="415.37" y="563" width="89.63" height="20" as="geometry" />
        </mxCell>
        <mxCell id="mYxqG1SxaeNXHI3gQlFm-26" value="" style="rounded=1;arcSize=3;dashed=0;fillColor=none;gradientColor=none;strokeWidth=1;strokeColor=#00331A;" parent="1" vertex="1">
          <mxGeometry x="530" y="480" width="230" height="120" as="geometry" />
        </mxCell>
        <mxCell id="mYxqG1SxaeNXHI3gQlFm-27" value="" style="sketch=0;html=1;dashed=0;whitespace=wrap;fillColor=#2875E2;strokeColor=#ffffff;points=[[0.005,0.63,0],[0.1,0.2,0],[0.9,0.2,0],[0.5,0,0],[0.995,0.63,0],[0.72,0.99,0],[0.5,1,0],[0.28,0.99,0]];verticalLabelPosition=bottom;align=center;verticalAlign=top;shape=mxgraph.kubernetes.icon;prIcon=deploy" parent="1" vertex="1">
          <mxGeometry x="543" y="492" width="40" height="37" as="geometry" />
        </mxCell>
        <mxCell id="mYxqG1SxaeNXHI3gQlFm-28" value="yml:deployment:alb" style="text;html=1;strokeColor=none;fillColor=none;align=center;verticalAlign=middle;whiteSpace=wrap;rounded=0;fontFamily=Comic Sans MS;fontSize=8;" parent="1" vertex="1">
          <mxGeometry x="557" y="521" width="89.63" height="20" as="geometry" />
        </mxCell>
        <mxCell id="mYxqG1SxaeNXHI3gQlFm-29" value="" style="html=1;verticalLabelPosition=bottom;strokeWidth=2;strokeColor=#0080F0;fillColor=strokeColor;shadow=0;dashed=0;shape=mxgraph.ios7.icons.orientation_lock;pointerEvents=1" parent="1" vertex="1">
          <mxGeometry x="548" y="562" width="31.55" height="30" as="geometry" />
        </mxCell>
        <mxCell id="mYxqG1SxaeNXHI3gQlFm-30" value="yml:secret:alb-tls" style="text;html=1;strokeColor=none;fillColor=none;align=center;verticalAlign=middle;whiteSpace=wrap;rounded=0;fontFamily=Comic Sans MS;fontSize=8;" parent="1" vertex="1">
          <mxGeometry x="556" y="577" width="89.63" height="20" as="geometry" />
        </mxCell>
        <mxCell id="mYxqG1SxaeNXHI3gQlFm-31" value="" style="endArrow=blockThin;startArrow=blockThin;html=1;rounded=0;exitX=0.127;exitY=-0.027;exitDx=0;exitDy=0;exitPerimeter=0;entryX=-0.016;entryY=0.1;entryDx=0;entryDy=0;entryPerimeter=0;endFill=1;startFill=1;strokeWidth=2;strokeColor=#00994D;" parent="1" source="mYxqG1SxaeNXHI3gQlFm-15" target="mYxqG1SxaeNXHI3gQlFm-26" edge="1">
          <mxGeometry width="50" height="50" relative="1" as="geometry">
            <mxPoint x="410" y="550" as="sourcePoint" />
            <mxPoint x="530" y="480" as="targetPoint" />
            <Array as="points">
              <mxPoint x="202" y="490" />
              <mxPoint x="370" y="490" />
            </Array>
          </mxGeometry>
        </mxCell>
        <mxCell id="mYxqG1SxaeNXHI3gQlFm-32" value="can Create::Update::Delete AWS APP/Load Balancers" style="text;html=1;strokeColor=none;fillColor=none;align=center;verticalAlign=middle;whiteSpace=wrap;rounded=0;fontFamily=Comic Sans MS;fontStyle=2" parent="1" vertex="1">
          <mxGeometry x="206" y="470" width="310" height="20" as="geometry" />
        </mxCell>
        <mxCell id="mYxqG1SxaeNXHI3gQlFm-34" value="" style="endArrow=blockThin;startArrow=blockThin;html=1;rounded=0;exitX=0.581;exitY=-0.089;exitDx=0;exitDy=0;exitPerimeter=0;endFill=1;startFill=1;strokeColor=#4C0099;" parent="1" edge="1">
          <mxGeometry width="50" height="50" relative="1" as="geometry">
            <mxPoint x="562.3305499999999" y="559.3299999999999" as="sourcePoint" />
            <mxPoint x="562" y="529" as="targetPoint" />
          </mxGeometry>
        </mxCell>
        <mxCell id="mYxqG1SxaeNXHI3gQlFm-36" value="" style="sketch=0;html=1;dashed=0;whitespace=wrap;fillColor=#2875E2;strokeColor=#ffffff;points=[[0.005,0.63,0],[0.1,0.2,0],[0.9,0.2,0],[0.5,0,0],[0.995,0.63,0],[0.72,0.99,0],[0.5,1,0],[0.28,0.99,0]];verticalLabelPosition=bottom;align=center;verticalAlign=top;shape=mxgraph.kubernetes.icon;prIcon=svc" parent="1" vertex="1">
          <mxGeometry x="687" y="491" width="50" height="48" as="geometry" />
        </mxCell>
        <mxCell id="mYxqG1SxaeNXHI3gQlFm-37" value="" style="endArrow=blockThin;startArrow=blockThin;html=1;rounded=0;endFill=1;startFill=1;strokeColor=#4C0099;exitX=0.053;exitY=0.396;exitDx=0;exitDy=0;exitPerimeter=0;" parent="1" source="mYxqG1SxaeNXHI3gQlFm-36" edge="1">
          <mxGeometry width="50" height="50" relative="1" as="geometry">
            <mxPoint x="583" y="541" as="sourcePoint" />
            <mxPoint x="583" y="510" as="targetPoint" />
          </mxGeometry>
        </mxCell>
        <mxCell id="mYxqG1SxaeNXHI3gQlFm-38" value="load balancer controller&lt;br&gt;webHook&amp;nbsp;&lt;br&gt;ClusterIP Service" style="text;html=1;strokeColor=none;fillColor=none;align=center;verticalAlign=middle;whiteSpace=wrap;rounded=0;fontFamily=Comic Sans MS;fontSize=10;" parent="1" vertex="1">
          <mxGeometry x="655" y="543" width="119.82" height="20" as="geometry" />
        </mxCell>
        <mxCell id="mYxqG1SxaeNXHI3gQlFm-39" value="" style="sketch=0;html=1;dashed=0;whitespace=wrap;fillColor=#2875E2;strokeColor=#ffffff;points=[[0.005,0.63,0],[0.1,0.2,0],[0.9,0.2,0],[0.5,0,0],[0.995,0.63,0],[0.72,0.99,0],[0.5,1,0],[0.28,0.99,0]];verticalLabelPosition=bottom;align=center;verticalAlign=top;shape=mxgraph.kubernetes.icon;prIcon=ns" parent="1" vertex="1">
          <mxGeometry x="389" y="366" width="43" height="36" as="geometry" />
        </mxCell>
        <mxCell id="mYxqG1SxaeNXHI3gQlFm-40" value="kube-system ns" style="text;html=1;strokeColor=none;fillColor=none;align=center;verticalAlign=middle;whiteSpace=wrap;rounded=0;fontFamily=Comic Sans MS;fontSize=8;" parent="1" vertex="1">
          <mxGeometry x="397" y="395" width="89.63" height="20" as="geometry" />
        </mxCell>
        <mxCell id="mYxqG1SxaeNXHI3gQlFm-43" style="edgeStyle=orthogonalEdgeStyle;rounded=0;orthogonalLoop=1;jettySize=auto;html=1;startArrow=blockThin;startFill=1;endArrow=blockThin;endFill=1;strokeWidth=2;strokeColor=#4D4D4D;" parent="1" edge="1">
          <mxGeometry relative="1" as="geometry">
            <mxPoint x="473" y="439" as="sourcePoint" />
            <mxPoint x="561" y="491" as="targetPoint" />
          </mxGeometry>
        </mxCell>
        <mxCell id="mYxqG1SxaeNXHI3gQlFm-41" value="" style="sketch=0;html=1;dashed=0;whitespace=wrap;fillColor=#2875E2;strokeColor=#ffffff;points=[[0.005,0.63,0],[0.1,0.2,0],[0.9,0.2,0],[0.5,0,0],[0.995,0.63,0],[0.72,0.99,0],[0.5,1,0],[0.28,0.99,0]];verticalLabelPosition=bottom;align=center;verticalAlign=top;shape=mxgraph.kubernetes.icon;prIcon=sa" parent="1" vertex="1">
          <mxGeometry x="430" y="415" width="45" height="38" as="geometry" />
        </mxCell>
        <mxCell id="mYxqG1SxaeNXHI3gQlFm-42" value="aws:alb:controller:service account" style="text;html=1;strokeColor=none;fillColor=none;align=center;verticalAlign=middle;whiteSpace=wrap;rounded=0;fontFamily=Comic Sans MS;fontSize=8;" parent="1" vertex="1">
          <mxGeometry x="416" y="451" width="161.63" height="20" as="geometry" />
        </mxCell>
        <mxCell id="mYxqG1SxaeNXHI3gQlFm-46" style="edgeStyle=orthogonalEdgeStyle;rounded=0;orthogonalLoop=1;jettySize=auto;html=1;entryX=0.483;entryY=0;entryDx=0;entryDy=0;entryPerimeter=0;strokeWidth=2;endArrow=blockThin;endFill=1;startArrow=blockThin;startFill=1;exitX=0.04;exitY=0.493;exitDx=0;exitDy=0;exitPerimeter=0;" parent="1" edge="1">
          <mxGeometry relative="1" as="geometry">
            <mxPoint x="670" y="393.6640000000001" as="sourcePoint" />
            <mxPoint x="637.0900000000001" y="480" as="targetPoint" />
            <Array as="points">
              <mxPoint x="640" y="394" />
              <mxPoint x="640" y="400" />
              <mxPoint x="637" y="400" />
            </Array>
          </mxGeometry>
        </mxCell>
        <mxCell id="mYxqG1SxaeNXHI3gQlFm-47" value="ingress::event" style="text;html=1;strokeColor=none;fillColor=none;align=center;verticalAlign=middle;whiteSpace=wrap;rounded=0;fontFamily=Comic Sans MS;fontSize=8;" parent="1" vertex="1">
          <mxGeometry x="622.37" y="437" width="89.63" height="20" as="geometry" />
        </mxCell>
        <mxCell id="mYxqG1SxaeNXHI3gQlFm-48" value="K8s API" style="text;html=1;strokeColor=none;fillColor=none;align=center;verticalAlign=middle;whiteSpace=wrap;rounded=0;fontFamily=Comic Sans MS;fontSize=8;" parent="1" vertex="1">
          <mxGeometry x="683.62" y="396" width="89.63" height="20" as="geometry" />
        </mxCell>
        <mxCell id="mYxqG1SxaeNXHI3gQlFm-49" value="&lt;font style=&quot;font-size: 6px;&quot;&gt;EKS Cluster&lt;/font&gt;" style="sketch=0;outlineConnect=0;fontColor=#232F3E;gradientColor=none;strokeColor=#ffffff;fillColor=#232F3E;dashed=0;verticalLabelPosition=middle;verticalAlign=bottom;align=center;html=1;whiteSpace=wrap;fontSize=10;fontStyle=1;spacing=3;shape=mxgraph.aws4.productIcon;prIcon=mxgraph.aws4.eks;" parent="1" vertex="1">
          <mxGeometry x="682" y="309" width="40" height="50" as="geometry" />
        </mxCell>
        <mxCell id="mYxqG1SxaeNXHI3gQlFm-50" value="" style="image;sketch=0;aspect=fixed;html=1;points=[];align=center;fontSize=12;image=img/lib/mscae/Kubernetes.svg;" parent="1" vertex="1">
          <mxGeometry x="737" y="302" width="31.25" height="30" as="geometry" />
        </mxCell>
        <mxCell id="P2TW07sIhYhjggmWHY2y-3" value="IAM Role" style="text;html=1;strokeColor=none;fillColor=none;align=center;verticalAlign=middle;whiteSpace=wrap;rounded=0;fontFamily=Comic Sans MS;fontSize=10;" vertex="1" parent="1">
          <mxGeometry x="283.32" y="354" width="54.26" height="20" as="geometry" />
        </mxCell>
        <mxCell id="P2TW07sIhYhjggmWHY2y-4" value="" style="sketch=0;html=1;dashed=0;whitespace=wrap;fillColor=#2875E2;strokeColor=#ffffff;points=[[0.005,0.63,0],[0.1,0.2,0],[0.9,0.2,0],[0.5,0,0],[0.995,0.63,0],[0.72,0.99,0],[0.5,1,0],[0.28,0.99,0]];verticalLabelPosition=bottom;align=center;verticalAlign=top;shape=mxgraph.kubernetes.icon;prIcon=api" vertex="1" parent="1">
          <mxGeometry x="671" y="365" width="50" height="48" as="geometry" />
        </mxCell>
      </root>
    </mxGraphModel>
  </diagram>
</mxfile>
